# xmcd
#
# Track frame offsets: 
#        150
#        14414
#        27167
#        46621
#        61814
#        79177
#        94949
#        114148
#        128324
#        139288
#        150804
#        170218
#        185080
#        199134
#
# Disc length: 2847 seconds
#
# Revision: 1
# Processed by: cddbd v1.5.2PL0 Copyright (c) Steve Scherf et al.
# Submitted via: ExactAudioCopy v0.99pb4
#
DISCID=ab0b1d0e
DTITLE=Major Dundee - Young Gods
DYEAR=1900
DGENRE=Country
TTITLE0=Shadows In The Night
TTITLE1=Juliet
TTITLE2=Somewhere Someone
TTITLE3=Mi Corazon
TTITLE4=Li'l Voices
TTITLE5=Rolling Along
TTITLE6=Cromen Cowboys
TTITLE7=Slow Train
TTITLE8=Celebratin' The Blues
TTITLE9=You Ain't What You Ain't
TTITLE10=No Secret
TTITLE11=I Miss The Rain
TTITLE12=Cottenfields
TTITLE13=Young Gods
EXTD=
EXTT0=
EXTT1=
EXTT2=
EXTT3=
EXTT4=
EXTT5=
EXTT6=
EXTT7=
EXTT8=
EXTT9=
EXTT10=
EXTT11=
EXTT12=
EXTT13=
PLAYORDER=
